<svg height="512" viewBox="0 0 64 64" width="512" xmlns="http://www.w3.org/2000/svg" xmlns:xlink="http://www.w3.org/1999/xlink"><linearGradient id="New_Gradient_Swatch" gradientUnits="userSpaceOnUse" x1="31.998" x2="31.998" y1="65.452" y2="-.233"><stop offset="0" stop-color="#e93e3a"/><stop offset=".35" stop-color="#ed683c"/><stop offset=".7" stop-color="#f3903f"/><stop offset="1" stop-color="#fdc70c"/></linearGradient><linearGradient id="New_Gradient_Swatch-2" x1="15.325" x2="15.325" xlink:href="#New_Gradient_Swatch" y1="65.452" y2="-.233"/><linearGradient id="New_Gradient_Swatch-3" x1="32" x2="32" xlink:href="#New_Gradient_Swatch" y1="65.452" y2="-.233"/><linearGradient id="New_Gradient_Swatch-4" x1="48.675" x2="48.675" xlink:href="#New_Gradient_Swatch" y1="65.452" y2="-.233"/><linearGradient id="New_Gradient_Swatch-5" x1="14.708" x2="14.708" xlink:href="#New_Gradient_Swatch" y1="65.452" y2="-.233"/><linearGradient id="New_Gradient_Swatch-7" x1="50.25" x2="50.25" xlink:href="#New_Gradient_Swatch" y1="65.452" y2="-.233"/><g id="Paticipatation-2" data-name="Paticipatation"><path d="m61.938 48.8-4.24-4.25a1 1 0 0 0 -.708-.294 1 1 0 0 0 -.708.3l-.706.706-.512-.512-1.344-5.382a1.008 1.008 0 0 0 -.262-.465l-10.458-10.466v-12.437a1 1 0 0 0 -.143-.515l-2.857-4.762v-.723h1a1 1 0 0 0 1-1v-6a1 1 0 0 0 -1-1h-16a1 1 0 0 0 -1 1v6a1 1 0 0 0 1 1v.586l-3.707 3.707a1 1 0 0 0 -.293.707v12a2.969 2.969 0 0 0 .252 1.184l-10.71 10.716a1.008 1.008 0 0 0 -.262.465l-1.343 5.384-.515.514-.706-.706a1 1 0 0 0 -1.414 0l-4.243 4.243a1 1 0 0 0 0 1.414l11.314 11.313a1 1 0 0 0 1.414 0l4.242-4.243a1 1 0 0 0 0-1.411l.413-.413h5.248a1 1 0 0 0 .707-.293l6.603-6.611 6.6 6.611a1 1 0 0 0 .707.293h5.246l.415.415a1 1 0 0 0 0 1.409l4.24 4.24a1 1 0 0 0 1.414 0l11.31-11.31a1 1 0 0 0 .006-1.414zm-35.938-44.8h14v4h-14zm.707 7.707a1 1 0 0 0 .293-.707v-1h11v1a1 1 0 0 0 .143.515l2.857 4.762v10.623a3.126 3.126 0 0 0 -2 .012v-1.912h-2v3.1l-.513-.513a2.987 2.987 0 0 0 -1.487-.814v-1.773h-2v2.036a2.841 2.841 0 0 0 -1.332 1.388l-.131-.131a2.934 2.934 0 0 0 -.537-.419v-2.874h-2v2.452a2.989 2.989 0 0 0 -1.707.841 2.942 2.942 0 0 0 -.444.585 2.946 2.946 0 0 0 -.2-.5 2.931 2.931 0 0 0 .351-1.378v-6h-2v5.9a3.009 3.009 0 0 0 -2 0v-11.486zm-12.627 47.699-9.9-9.9 2.829-2.828 9.9 9.9zm10.195-5.946h-5.245a1 1 0 0 0 -.707.293l-.705.7-7.781-7.776.71-.71a1.006 1.006 0 0 0 .263-.465l1.343-5.381 11.1-11.115a1.011 1.011 0 0 1 1.409-.024c.016.019.031.038.048.056a.991.991 0 0 1 -.032 1.375l-4.95 4.95 1.414 1.414 4.95-4.95a3.016 3.016 0 0 0 .446-.589 2.962 2.962 0 0 0 .749 1.3l.125.125a3.024 3.024 0 0 0 -.835.581 2.984 2.984 0 0 0 -.847 1.777l-.433.433-2.74 2.74 1.414 1.414 2.383-2.383a2.924 2.924 0 0 0 .223.263l1.175 1.171-2.365 2.365 1.414 1.414 2.367-2.367.132.131a.893.893 0 0 0 .077.086l1.2 1.2-5.19 5.185 1.414 1.414 2.6-2.6a2.975 2.975 0 0 0 .717 1.189l.463.464zm15.45 0-8.188-8.2a1 1 0 0 1 0-1.416.891.891 0 0 1 .463-.254.984.984 0 0 0 .242-.03.984.984 0 0 1 .689.266l4.258 4.258 1.414-1.414-10.62-10.61a.961.961 0 0 1 -.279-.658 1 1 0 0 1 .956-1.044 1.054 1.054 0 0 0 .113.009 1.025 1.025 0 0 1 .636.287l7.78 7.78 1.414-1.414-9.9-9.9a1 1 0 0 1 0-1.416.99.99 0 0 1 .713-.287.955.955 0 0 1 .3.05.921.921 0 0 1 .4.237l9.9 9.9 1.414-1.414-7.782-7.79a.96.96 0 0 1 -.279-.66 1 1 0 0 1 .288-.74 1.077 1.077 0 0 1 .588-.287.527.527 0 0 1 .115-.01 1.006 1.006 0 0 1 .713.3l7.78 7.78 1.414-1.414-4.95-4.95a1 1 0 0 1 0-1.416 1.022 1.022 0 0 1 1.416 0l11.114 11.118 1.343 5.379a1.006 1.006 0 0 0 .263.465l.708.708-7.781 7.783-.7-.7a1 1 0 0 0 -.707-.293zm10.2 5.946-2.831-2.831 9.9-9.9 2.824 2.832z" fill="url(#New_Gradient_Swatch)"/><path d="m19.65 17.561-1.3-1.52a21.031 21.031 0 0 0 -7.115 19.108l1.977-.3a19.189 19.189 0 0 1 -.212-2.849 18.987 18.987 0 0 1 6.65-14.439z" fill="url(#New_Gradient_Swatch-2)"/><path d="m33.049 52.975-.1-2c-.63.031-1.272.031-1.9 0l-.1 2c.347.016.7.025 1.049.025s.702-.009 1.051-.025z" fill="url(#New_Gradient_Swatch-3)"/><path d="m52.9 34.1c.069-.691.1-1.4.1-2.1a20.986 20.986 0 0 0 -7.35-15.959l-1.3 1.52a18.987 18.987 0 0 1 6.65 14.439c0 .636-.032 1.276-.094 1.9z" fill="url(#New_Gradient_Swatch-4)"/><path d="m9.5 36.792a23.039 23.039 0 0 1 12.917-25.707l-.834-1.817a25.042 25.042 0 0 0 -14.04 27.94z" fill="url(#New_Gradient_Swatch-5)"/><path d="m28.166 54.682-.332 1.972a25.253 25.253 0 0 0 8.332 0l-.332-1.972a23.38 23.38 0 0 1 -7.668 0z" fill="url(#New_Gradient_Swatch-3)"/><path d="m55 32a23.126 23.126 0 0 1 -.5 4.792l1.957.416a25.044 25.044 0 0 0 -11.957-26.863l-1 1.732a23.087 23.087 0 0 1 11.5 19.923z" fill="url(#New_Gradient_Swatch-7)"/></g></svg>