<svg enable-background="new 0 0 64 64" height="512" viewBox="0 0 64 64" width="512" xmlns="http://www.w3.org/2000/svg"><g id="Icons"><g><g><path d="m52 30c2.209 0 4-1.791 4-4v-2c0-2.209-1.791-4-4-4h-2v8c0 1.105.895 2 2 2z" fill="#0a5078"/></g><g><path d="m44 30c1.105 0 2-.895 2-2v-8h-2c-2.209 0-4 1.791-4 4v2c0 2.209 1.791 4 4 4z" fill="#0a5078"/></g><g><path d="m46 10h4v6h-4z" fill="#0a5078"/></g><g><path d="m46 15h2c.729 0 1.412-.195 2-.535v-4.465h-4z" fill="#00325a"/></g><g><g><path d="m52 20h-2v5h2c1.105 0 2-.895 2-2v-2.465c-.588-.34-1.271-.535-2-.535z" fill="#00325a"/></g><g><path d="m46 25v-5h-2c-.729 0-1.412.195-2 .535v2.465c0 1.105.895 2 2 2z" fill="#00325a"/></g></g><g><path d="m44 24h8c1.105 0 2-.895 2-2v-4c0-1.105-.895-2-2-2h-8c-1.105 0-2 .895-2 2v4c0 1.105.895 2 2 2z" fill="#00a0c8"/></g><g><path d="m32.001 50c-1.095 0-2.185-.446-2.975-1.324l-18-20c-1.363-1.514-1.37-3.811-.017-5.333l14-16c.761-.854 1.848-1.343 2.991-1.343h20c2.209 0 4 1.791 4 4s-1.791 4-4 4h-18.204l-10.43 11.983 15.607 17.341c1.478 1.642 1.345 4.171-.298 5.649-.764.688-1.72 1.027-2.674 1.027z" fill="#c80a50"/></g><g><path d="m25.01 7.343-1.996 2.245c-.009.136-.014.274-.014.412 0 3.001 2.203 5.488 5.081 5.93l1.715-1.93h3.675c.951-1.062 1.529-2.463 1.529-4s-.578-2.938-1.528-4h-5.472c-1.143 0-2.23.489-2.99 1.343z" fill="#a00028"/></g><g><path d="m19.367 25.983.627-.721c.004-.086.006-.174.006-.262 0-3.054-2.281-5.574-5.232-5.951l-3.757 4.294c-1.354 1.522-1.346 3.819.017 5.333l2.024 2.249c.308.049.625.075.948.075 2.802 0 5.156-1.921 5.815-4.518z" fill="#a00028"/></g><g><circle cx="14" cy="26" fill="#00a0c8" r="6"/></g><g><circle cx="28" cy="10" fill="#00a0c8" r="6"/></g><g><circle cx="28" cy="10" fill="#f0f0f0" r="2"/></g><g><circle cx="14" cy="26" fill="#f0f0f0" r="2"/></g><g><circle cx="48" cy="10" fill="#fab400" r="2"/></g><g><circle cx="45" cy="21" fill="#c80a50" r="1"/></g><g><circle cx="51" cy="21" fill="#c80a50" r="1"/></g><g><g><path d="m54 48h-12c-1.105 0-2-.895-2-2v-12c0-1.105.895-2 2-2h12c1.105 0 2 .895 2 2v12c0 1.105-.895 2-2 2z" fill="#fab400"/></g><g><path d="m49 36h-2c-.552 0-1-.448-1-1v-3h4v3c0 .552-.448 1-1 1z" fill="#f0f0f0"/></g><g><path d="m54 48h-44c-3.314 0-6 2.686-6 6 0 3.314 2.686 6 6 6h44c3.314 0 6-2.686 6-6 0-3.314-2.686-6-6-6z" fill="#00a0c8"/></g><g><path d="m54 58h-44c-2.209 0-4-1.791-4-4 0-2.209 1.791-4 4-4h44c2.209 0 4 1.791 4 4 0 2.209-1.791 4-4 4z" fill="#0a5078"/></g><g><circle cx="12" cy="54" fill="#f0f0f0" r="2"/></g><g><circle cx="20" cy="54" fill="#f0f0f0" r="2"/></g><g><circle cx="28" cy="54" fill="#f0f0f0" r="2"/></g><g><circle cx="36" cy="54" fill="#f0f0f0" r="2"/></g><g><circle cx="44" cy="54" fill="#f0f0f0" r="2"/></g><g><circle cx="52" cy="54" fill="#f0f0f0" r="2"/></g></g><g><path d="m30 36c3.314 0 6 2.686 6 6v6h-12v-6c0-3.314 2.686-6 6-6z" fill="#0a5078"/></g><g><circle cx="30" cy="42" fill="#f0f0f0" r="2"/></g><g><path d="m24 47h12v1h-12z" fill="#00325a"/></g></g></g></svg>