<svg id="flat" height="512" viewBox="0 0 512 512" width="512" xmlns="http://www.w3.org/2000/svg"><path d="m496 24v80h-336a15.99552 15.99552 0 0 0 -16 16v104h-80v-96q0-4.035.3-8a105.18349 105.18349 0 0 1 2.48-16 103.76853 103.76853 0 0 1 30.17-51.93 102.0796 102.0796 0 0 1 12.49-10.02 103.3723 103.3723 0 0 1 50.56-17.75q3.96021-.3 8-.3z" fill="#cad8ed"/><path d="m24 224h168v264h-168z" fill="#5771e5"/><path d="m56 256h104v88h-104z" fill="#7ab8f5"/><path d="m56 368h104v88h-104z" fill="#a2c1fa"/><path d="m80 304h16v16h-16z" fill="#4e96ed"/><path d="m112 304h32v16h-32z" fill="#4e96ed"/><path d="m96 280h48v16h-48z" fill="#4e96ed"/><path d="m160 416h-24v-16a8.00008 8.00008 0 0 0 -8-8h-8v-24h-16v32a8.00008 8.00008 0 0 0 8 8h8v48h16v-24h24z" fill="#89a8f5"/><path d="m88 368h-16v56a8.00008 8.00008 0 0 0 8 8h32v-16h-24z" fill="#89a8f5"/><g fill="#a6bce3"><path d="m64 160h80v16h-80z"/><path d="m384 24h16v80h-16z"/><path d="m440 24h16v80h-16z"/><path d="m272 24h16v80h-16z"/><path d="m328 24h16v80h-16z"/><path d="m176 24v80h-16a15.99552 15.99552 0 0 0 -16 16h-79.69995a105.18349 105.18349 0 0 1 2.48-16h74.67995l-44.51-51.93a102.0796 102.0796 0 0 1 12.49-10.02l50.56 58.99v-76.74q3.96021-.3 8-.3z"/><path d="m216 24h16v80h-16z"/></g><path d="m384 296v40h-16l-8-24h-32l-8 24h-16v-40l32-21.34 8-5.33 8 5.33z" fill="#6d7eb3"/><path d="m352 274.66v37.34h-16v-37.34l8-5.33z" fill="#8796c4"/><path d="m336 264-40.889-40.889-39.111 48.889h-16v-24l32-40h48l32 32v24z" fill="#6d7eb3"/><path d="m272 304v88h-80l4.36-16 19.64-72 24-24h8z" fill="#6d7eb3"/><path d="m192 392h88v96h-88z" fill="#6d7eb3"/><circle cx="344" cy="272" fill="#56679c" r="16"/><circle cx="248" cy="280" fill="#56679c" r="16"/><circle cx="296" cy="216" fill="#56679c" r="16"/><path d="m240 448h16v16h-16z" fill="#56679c"/><path d="m216 448h16v16h-16z" fill="#56679c"/><path d="m280 392h216v32h-216z" fill="#6d7eb3"/><path d="m424 424 16 24h24l16-24z" fill="#56679c"/><path d="m440 448h24v40h-24z" fill="#6d7eb3"/><path d="m312 336h64v56h-64z" fill="#f7c04a"/><path d="m408 336h64v56h-64z" fill="#f7c04a"/><path d="m336 336h16v24h-16z" fill="#f7dfa1"/><path d="m432 336h16v24h-16z" fill="#f7dfa1"/><path d="m312.96973 183.0293a23.99832 23.99832 0 0 0 -33.93946 0l-11.31445-11.31348a39.99956 39.99956 0 0 1 56.56836 0z" fill="#90d4b1"/><path d="m329.94043 166.05859a48.05334 48.05334 0 0 0 -67.88086 0l-11.31445-11.31347a64.07169 64.07169 0 0 1 90.50976 0z" fill="#90d4b1"/><path d="m360 424 16 24h24l16-24z" fill="#56679c"/><path d="m376 448h24v40h-24z" fill="#6d7eb3"/><path d="m296 424 16 24h24l16-24z" fill="#56679c"/><path d="m312 448h24v40h-24z" fill="#6d7eb3"/><path d="m280 392h16v32h-16z" fill="#56679c"/><path d="m272 376v16h-80l4.36-16z" fill="#56679c"/></svg>