<svg xmlns="http://www.w3.org/2000/svg" viewBox="0 0 1440 320">
  <path fill="#f3f4f5" fill-opacity="1" d="M0,288L21.8,282.7C43.6,277,87,267,131,234.7C174.5,203,218,149,262,154.7C305.5,160,349,224,393,256C436.4,288,480,288,524,266.7C567.3,245,611,203,655,181.3C698.2,160,742,160,785,181.3C829.1,203,873,245,916,234.7C960,224,1004,160,1047,122.7C1090.9,85,1135,75,1178,80C1221.8,85,1265,107,1309,122.7C1352.7,139,1396,149,1418,154.7L1440,160L1440,320L1418.2,320C1396.4,320,1353,320,1309,320C1265.5,320,1222,320,1178,320C1134.5,320,1091,320,1047,320C1003.6,320,960,320,916,320C872.7,320,829,320,785,320C741.8,320,698,320,655,320C610.9,320,567,320,524,320C480,320,436,320,393,320C349.1,320,305,320,262,320C218.2,320,175,320,131,320C87.3,320,44,320,22,320L0,320Z"></path>
</svg>
